# xmcd
#
# Track frame offsets: 
#        150
#        16730
#        38380
#        58802
#        82127
#        98970
#        115780
#        130255
#        144610
#        160965
#        174370
#        191550
#        215807
#        232690
#        245915
#
# Disc length: 3762 seconds
#
# Revision: 0
# Processed by: cddbd v1.5.2PL0 Copyright (c) Steve Scherf et al.
# Submitted via: ExactAudioCopy v0.99pb4
#
DISCID=cc0eb00f
DTITLE=Rick Holmstrom - Hydraulic Groove
DYEAR=2002
DGENRE=Blues
TTITLE0=These Roads
TTITLE1=Bobo the Hobo
TTITLE2=Last to Know
TTITLE3=Pee Wee's Nightmare
TTITLE4=Shake It, Part 2
TTITLE5=My Maria
TTITLE6=Back It Up
TTITLE7=Gravy
TTITLE8=Harlan Shuffle
TTITLE9=Tell Me
TTITLE10=I'm Gone
TTITLE11=Roll Tape
TTITLE12=Shake It, Part 2 (DJ Logic Remix)
TTITLE13=Knock Yourself Out (Genome Remix)
TTITLE14=Hamp's Hump
EXTD=
EXTT0=
EXTT1=
EXTT2=
EXTT3=
EXTT4=
EXTT5=
EXTT6=
EXTT7=
EXTT8=
EXTT9=
EXTT10=
EXTT11=
EXTT12=
EXTT13=
EXTT14=
PLAYORDER=
